<svg xmlns="http://www.w3.org/2000/svg" >
    <symbol viewBox="0 0 18.065 12.7" width="18.065" height="12.7" id="blackRightArrow">
        <path d="M12.172,4.867a.64.64,0,1,0-.91.9l4.616,4.616H.646A.641.641,0,0,0,0,11.021a.649.649,0,0,0,.646.646H15.877l-4.616,4.607a.653.653,0,0,0,0,.91.638.638,0,0,0,.91,0l5.708-5.708a.642.642,0,0,0,0-.9Z" transform="translate(0.001 -4.676)"/>
    </symbol>
    <symbol viewBox="0 0 21 21" id="wifiLogo">
        <path d="M4.76,16.233a2.762,2.762,0,0,1,0,3.926h0a2.791,2.791,0,0,1-3.942,0,2.765,2.765,0,0,1,0-3.927h0a2.786,2.786,0,0,1,3.942,0Zm0,0h0ZM.818,20.16h0ZM0,7.141v4.01a9.78,9.78,0,0,1,6.947,2.886A9.8,9.8,0,0,1,9.83,20.993h0V21h4.026a13.826,13.826,0,0,0-4.066-9.792A13.809,13.809,0,0,0,0,7.141ZM.01,0V4.008A17.011,17.011,0,0,1,16.98,21H21A20.945,20.945,0,0,0,14.842,6.161,20.926,20.926,0,0,0,.01,0Z"/>
    </symbol>
    <symbol viewBox="0 0 21 21" id="wifiLogo">
        <path d="M4.76,16.233a2.762,2.762,0,0,1,0,3.926h0a2.791,2.791,0,0,1-3.942,0,2.765,2.765,0,0,1,0-3.927h0a2.786,2.786,0,0,1,3.942,0Zm0,0h0ZM.818,20.16h0ZM0,7.141v4.01a9.78,9.78,0,0,1,6.947,2.886A9.8,9.8,0,0,1,9.83,20.993h0V21h4.026a13.826,13.826,0,0,0-4.066-9.792A13.809,13.809,0,0,0,0,7.141ZM.01,0V4.008A17.011,17.011,0,0,1,16.98,21H21A20.945,20.945,0,0,0,14.842,6.161,20.926,20.926,0,0,0,.01,0Z"/>
    </symbol>
    <symbol viewBox="0 0 61 61" id="checkGreen">
        <g transform="translate(15.555 19.307)">
        <path d="M135.182,135.04l-14.762,15.036-7.564-7.595-4.056,4.057,11.925,11.9,19.154-18.575Z" transform="translate(-108.8 -135.04)"/></g><path d="M30.5,0A30.5,30.5,0,1,0,61,30.5,30.5,30.5,0,0,0,30.5,0Zm0,55.48A24.98,24.98,0,1,1,55.48,30.5,24.98,24.98,0,0,1,30.5,55.48Z"/>
    </symbol>
    <symbol viewBox="0 0 15 15" id="instagram">
        <path d="M11.195,0H4.267A4.272,4.272,0,0,0,0,4.267v6.928a4.272,4.272,0,0,0,4.267,4.267h6.928a4.272,4.272,0,0,0,4.267-4.267V4.267A4.272,4.272,0,0,0,11.195,0Zm2.9,11.195a2.9,2.9,0,0,1-2.9,2.9H4.267a2.9,2.9,0,0,1-2.895-2.9V4.267a2.9,2.9,0,0,1,2.895-2.9h6.928a2.9,2.9,0,0,1,2.9,2.9v6.928Z"/><path d="M44.952,40.97a3.984,3.984,0,1,0,3.984,3.984A3.989,3.989,0,0,0,44.952,40.97Zm0,6.6a2.612,2.612,0,1,1,2.612-2.612A2.615,2.615,0,0,1,44.952,47.566Z" transform="translate(-37.221 -37.223)"/><path d="M119.927,28.251a1.005,1.005,0,1,0,.712.294A1.01,1.01,0,0,0,119.927,28.251Z" transform="translate(-108.045 -25.667)"/>
    </symbol>
    <symbol viewBox="0 0 11 15" id="odnoklassniki">
        <g transform="translate(-76.922)">
            <g transform="translate(78.478)">
                <g transform="translate(0)">
                    <path d="M131.9,0a3.9,3.9,0,1,0,3.9,3.9A3.9,3.9,0,0,0,131.9,0Zm0,5.85a1.95,1.95,0,1,1,1.95-1.95A1.952,1.952,0,0,1,131.9,5.85Z" transform="translate(-128.002)"/></g></g><g transform="translate(76.922 7.406)"><g transform="translate(0)"><path class="a" d="M87.55,243.35a.974.974,0,0,0-1.379,0,5.37,5.37,0,0,1-7.584,0,.975.975,0,1,0-1.379,1.38,7.268,7.268,0,0,0,4.336,2.085l-2.78,2.78a.975.975,0,1,0,1.379,1.379l2.236-2.236,2.236,2.236a.975.975,0,1,0,1.379-1.379l-2.78-2.78a7.268,7.268,0,0,0,4.336-2.085A.976.976,0,0,0,87.55,243.35Z" transform="translate(-76.922 -243.064)"/>
                </g>
            </g>
        </g>
    </symbol>
    <symbol viewBox="0 0 6.658 14.267" id="facebook">
        <g transform="translate(-114.696 -0.001)">
            <path d="M116.135,2.764V4.728H114.7v2.4h1.439v7.138h2.956V7.13h1.984s.186-1.152.276-2.411H119.1V3.077a.7.7,0,0,1,.641-.576h1.611V0h-2.19C116.062,0,116.135,2.405,116.135,2.764Z" transform="translate(0 0)"/>
        </g>
    </symbol>
    <symbol viewBox="0 0 31.495 22.141" id="homePageSliderArrowLeft">
        <path d="M10.273,5.009A1.117,1.117,0,0,1,11.86,6.58L3.813,14.627H30.367a1.118,1.118,0,0,1,1.127,1.111,1.131,1.131,0,0,1-1.127,1.127H3.813L11.86,24.9a1.139,1.139,0,0,1,0,1.587,1.112,1.112,0,0,1-1.587,0L.321,16.532a1.12,1.12,0,0,1,0-1.571Z" transform="translate(0.001 -4.676)"/>
    </symbol>
    <symbol viewBox="0 0 31.495 22.141" id="homePageSliderArrowRight">
        <path d="M21.22,5.009A1.117,1.117,0,1,0,19.633,6.58l8.047,8.047H1.126A1.118,1.118,0,0,0,0,15.738a1.131,1.131,0,0,0,1.127,1.127H27.68L19.633,24.9a1.139,1.139,0,0,0,0,1.587,1.112,1.112,0,0,0,1.587,0l9.952-9.952a1.12,1.12,0,0,0,0-1.571Z" transform="translate(0.001 -4.676)"/>
    </symbol>
</svg>